<?xml version="1.0" encoding="UTF-8" standalone="no"?>
<svg
   xmlns:dc="http://purl.org/dc/elements/1.1/"
   xmlns:cc="http://creativecommons.org/ns#"
   xmlns:rdf="http://www.w3.org/1999/02/22-rdf-syntax-ns#"
   xmlns:svg="http://www.w3.org/2000/svg"
   xmlns="http://www.w3.org/2000/svg"
   xmlns:xlink="http://www.w3.org/1999/xlink"
   xmlns:sodipodi="http://sodipodi.sourceforge.net/DTD/sodipodi-0.dtd"
   xmlns:inkscape="http://www.inkscape.org/namespaces/inkscape"
   version="1.1"
   id="svg2"
   height="1052.36220472"
   width="744.094488189"
   inkscape:version="0.91 r13725"
   sodipodi:docname="1kit-b.svg">
  <sodipodi:namedview
     pagecolor="#ffffff"
     bordercolor="#666666"
     borderopacity="1"
     objecttolerance="10"
     gridtolerance="10"
     guidetolerance="10"
     inkscape:pageopacity="0"
     inkscape:pageshadow="2"
     inkscape:window-width="1001"
     inkscape:window-height="480"
     id="namedview227"
     showgrid="false"
     inkscape:zoom="0.22425739"
     inkscape:cx="372.04724"
     inkscape:cy="526.18109"
     inkscape:window-x="2166"
     inkscape:window-y="249"
     inkscape:window-maximized="0"
     inkscape:current-layer="g412" />
  <metadata
     id="metadata438">
    <rdf:RDF>
      <cc:Work
         rdf:about="">
        <dc:format>image/svg+xml</dc:format>
        <dc:type
           rdf:resource="http://purl.org/dc/dcmitype/StillImage" />
        <dc:title></dc:title>
      </cc:Work>
    </rdf:RDF>
  </metadata>
  <desc
     id="desc4">/home/kodda/Dropbox/p2pflab/brackets/tocut/new/1kit.dxf - scale = 0.652377, origin = (-2.000000, 0.000000), auto = True</desc>
  <defs
     id="defs6">
    <marker
       style="overflow:visible"
       refY="0.0"
       refX="0.0"
       orient="auto"
       id="DistanceX">
      <path
         id="path9"
         style="stroke:#000000; stroke-width:0.5"
         d="M 3,-3 L -3,3 M 0,-5 L  0,5" />
    </marker>
    <pattern
       y="0"
       x="0"
       width="8"
       patternUnits="userSpaceOnUse"
       id="Hatch"
       height="8">
      <path
         id="path12"
         stroke-width="0.25"
         stroke="#000000"
         linecap="square"
         d="M8 4 l-4,4" />
      <path
         id="path14"
         stroke-width="0.25"
         stroke="#000000"
         linecap="square"
         d="M6 2 l-4,4" />
      <path
         id="path16"
         stroke-width="0.25"
         stroke="#000000"
         linecap="square"
         d="M4 0 l-4,4" />
    </pattern>
    <symbol
       id="*Model_Space" />
    <symbol
       id="*Paper_Space" />
    <symbol
       id="top_out_1">
      <path
         id="path21"
         style="stroke:#000000;fill:none;stroke-linecap: round"
         d="M -365.806004,1121.709315 15.603100,1121.709315" />
      <path
         id="path23"
         style="stroke:#000000;fill:none;stroke-linecap: round"
         d="M 15.603100,1121.709315 15.603100,1107.839893" />
      <path
         id="path25"
         style="stroke:#000000;fill:none;stroke-linecap: round"
         d="M 15.603100,1107.839893 27.160951,1107.839893" />
      <path
         id="path27"
         style="stroke:#000000;fill:none;stroke-linecap: round"
         d="M 27.160951,1107.839893 27.160951,1093.970471" />
      <path
         id="path29"
         style="stroke:#000000;fill:none;stroke-linecap: round"
         d="M 27.160951,1093.970471 15.603100,1093.970471" />
      <path
         id="path31"
         style="stroke:#000000;fill:none;stroke-linecap: round"
         d="M 15.603100,1093.970471 15.603100,1080.101049" />
      <path
         id="path33"
         style="stroke:#000000;fill:none;stroke-linecap: round"
         d="M 15.603100,1080.101049 27.160951,1080.101049" />
      <path
         id="path35"
         style="stroke:#000000;fill:none;stroke-linecap: round"
         d="M 27.160951,1080.101049 27.160951,1066.231627" />
      <path
         id="path37"
         style="stroke:#000000;fill:none;stroke-linecap: round"
         d="M 27.160951,1066.231627 15.603100,1066.231627" />
      <path
         id="path39"
         style="stroke:#000000;fill:none;stroke-linecap: round"
         d="M 15.603100,1066.231627 15.603100,1052.362205" />
      <path
         id="path41"
         style="stroke:#000000;fill:none;stroke-linecap: round"
         d="M 15.603100,1052.362205 -354.248153,1052.362205" />
      <path
         id="path43"
         style="stroke:#000000;fill:none;stroke-linecap: round"
         d="M -354.248153,1052.362205 -354.248153,1066.231627" />
      <path
         id="path45"
         style="stroke:#000000;fill:none;stroke-linecap: round"
         d="M -354.248153,1066.231627 -365.806004,1066.231627" />
      <path
         id="path47"
         style="stroke:#000000;fill:none;stroke-linecap: round"
         d="M -365.806004,1066.231627 -365.806004,1080.101049" />
      <path
         id="path49"
         style="stroke:#000000;fill:none;stroke-linecap: round"
         d="M -365.806004,1080.101049 -354.248153,1080.101049" />
      <path
         id="path51"
         style="stroke:#000000;fill:none;stroke-linecap: round"
         d="M -354.248153,1080.101049 -354.248153,1093.970471" />
      <path
         id="path53"
         style="stroke:#000000;fill:none;stroke-linecap: round"
         d="M -354.248153,1093.970471 -365.806004,1093.970471" />
      <path
         id="path55"
         style="stroke:#000000;fill:none;stroke-linecap: round"
         d="M -365.806004,1093.970471 -365.806004,1107.839893" />
      <path
         id="path57"
         style="stroke:#000000;fill:none;stroke-linecap: round"
         d="M -365.806004,1107.839893 -354.248153,1107.839893" />
      <path
         id="path59"
         style="stroke:#000000;fill:none;stroke-linecap: round"
         d="M -354.248153,1107.839893 -354.248153,1121.709315" />
      <path
         id="path61"
         style="stroke:#000000;fill:none;stroke-linecap: round"
         d="M -354.248153,1121.709315 -365.806004,1121.709315" />
      <path
         id="path63"
         style="stroke:#000000;fill:none;stroke-linecap: round"
         d="M -229.038093,1087.035760 A 5.778926,5.778926 -0.000000 1 0 -240.595945,1087.035760 5.778926,5.778926 -0.000000 1 0 -229.038093,1087.035760 z" />
      <path
         id="path65"
         style="stroke:#000000;fill:none;stroke-linecap: round"
         d="M -98.049108,1087.035760 A 5.778926,5.778926 -0.000000 1 0 -109.606960,1087.035760 5.778926,5.778926 -0.000000 1 0 -98.049108,1087.035760 z" />
    </symbol>
    <symbol
       id="Top_In">
      <path
         id="path68"
         style="stroke:#000000;fill:none;stroke-linecap: round"
         d="M -217.287611,1120.553529 36.985125,1120.553529" />
      <path
         id="path70"
         style="stroke:#000000;fill:none;stroke-linecap: round"
         d="M 36.985125,1120.553529 36.985125,1106.684107" />
      <path
         id="path72"
         style="stroke:#000000;fill:none;stroke-linecap: round"
         d="M 36.985125,1106.684107 48.542977,1106.684107" />
      <path
         id="path74"
         style="stroke:#000000;fill:none;stroke-linecap: round"
         d="M 48.542977,1106.684107 48.542977,1092.814685" />
      <path
         id="path76"
         style="stroke:#000000;fill:none;stroke-linecap: round"
         d="M 48.542977,1092.814685 36.985125,1092.814685" />
      <path
         id="path78"
         style="stroke:#000000;fill:none;stroke-linecap: round"
         d="M 36.985125,1092.814685 36.985125,1078.945263" />
      <path
         id="path80"
         style="stroke:#000000;fill:none;stroke-linecap: round"
         d="M 36.985125,1078.945263 48.542977,1078.945263" />
      <path
         id="path82"
         style="stroke:#000000;fill:none;stroke-linecap: round"
         d="M 48.542977,1078.945263 48.542977,1065.075842" />
      <path
         id="path84"
         style="stroke:#000000;fill:none;stroke-linecap: round"
         d="M 48.542977,1065.075842 36.985125,1065.075842" />
      <path
         id="path86"
         style="stroke:#000000;fill:none;stroke-linecap: round"
         d="M 36.985125,1065.075842 36.985125,1051.206420" />
      <path
         id="path88"
         style="stroke:#000000;fill:none;stroke-linecap: round"
         d="M 36.985125,1051.206420 -217.287611,1051.206420" />
      <path
         id="path90"
         style="stroke:#000000;fill:none;stroke-linecap: round"
         d="M -217.287611,1051.206420 -217.287611,1065.075842" />
      <path
         id="path92"
         style="stroke:#000000;fill:none;stroke-linecap: round"
         d="M -217.287611,1065.075842 -228.845462,1065.075842" />
      <path
         id="path94"
         style="stroke:#000000;fill:none;stroke-linecap: round"
         d="M -228.845462,1065.075842 -228.845462,1078.945263" />
      <path
         id="path96"
         style="stroke:#000000;fill:none;stroke-linecap: round"
         d="M -228.845462,1078.945263 -217.287611,1078.945263" />
      <path
         id="path98"
         style="stroke:#000000;fill:none;stroke-linecap: round"
         d="M -217.287611,1078.945263 -217.287611,1092.814685" />
      <path
         id="path100"
         style="stroke:#000000;fill:none;stroke-linecap: round"
         d="M -217.287611,1092.814685 -228.845462,1092.814685" />
      <path
         id="path102"
         style="stroke:#000000;fill:none;stroke-linecap: round"
         d="M -228.845462,1092.814685 -228.845462,1106.684107" />
      <path
         id="path104"
         style="stroke:#000000;fill:none;stroke-linecap: round"
         d="M -228.845462,1106.684107 -217.287611,1106.684107" />
      <path
         id="path106"
         style="stroke:#000000;fill:none;stroke-linecap: round"
         d="M -217.287611,1106.684107 -217.287611,1120.553529" />
      <path
         id="path108"
         style="stroke:#000000;fill:none;stroke-linecap: round"
         d="M -80.904961,1085.879974 A 9.246281,9.246281 -0.000000 1 0 -99.397524,1085.879974 9.246281,9.246281 -0.000000 1 0 -80.904961,1085.879974 z" />
    </symbol>
    <symbol
       id="top_out_big1">
      <path
         id="path111"
         style="stroke:#000000;fill:none;stroke-linecap: round"
         d="M -356.559723,1121.709315 13.291529,1121.709315" />
      <path
         id="path113"
         style="stroke:#000000;fill:none;stroke-linecap: round"
         d="M 13.291529,1121.709315 13.291529,1107.839893" />
      <path
         id="path115"
         style="stroke:#000000;fill:none;stroke-linecap: round"
         d="M 13.291529,1107.839893 24.849381,1107.839893" />
      <path
         id="path117"
         style="stroke:#000000;fill:none;stroke-linecap: round"
         d="M 24.849381,1107.839893 24.849381,1093.970471" />
      <path
         id="path119"
         style="stroke:#000000;fill:none;stroke-linecap: round"
         d="M 24.849381,1093.970471 13.291529,1093.970471" />
      <path
         id="path121"
         style="stroke:#000000;fill:none;stroke-linecap: round"
         d="M 13.291529,1093.970471 13.291529,1080.101049" />
      <path
         id="path123"
         style="stroke:#000000;fill:none;stroke-linecap: round"
         d="M 13.291529,1080.101049 24.849381,1080.101049" />
      <path
         id="path125"
         style="stroke:#000000;fill:none;stroke-linecap: round"
         d="M 24.849381,1080.101049 24.849381,1066.231627" />
      <path
         id="path127"
         style="stroke:#000000;fill:none;stroke-linecap: round"
         d="M 24.849381,1066.231627 13.291529,1066.231627" />
      <path
         id="path129"
         style="stroke:#000000;fill:none;stroke-linecap: round"
         d="M 13.291529,1066.231627 13.291529,1052.362205" />
      <path
         id="path131"
         style="stroke:#000000;fill:none;stroke-linecap: round"
         d="M 13.291529,1052.362205 -356.559723,1052.362205" />
      <path
         id="path133"
         style="stroke:#000000;fill:none;stroke-linecap: round"
         d="M -356.559723,1052.362205 -356.559723,1066.231627" />
      <path
         id="path135"
         style="stroke:#000000;fill:none;stroke-linecap: round"
         d="M -356.559723,1066.231627 -368.117575,1066.231627" />
      <path
         id="path137"
         style="stroke:#000000;fill:none;stroke-linecap: round"
         d="M -368.117575,1066.231627 -368.117575,1080.101049" />
      <path
         id="path139"
         style="stroke:#000000;fill:none;stroke-linecap: round"
         d="M -368.117575,1080.101049 -356.559723,1080.101049" />
      <path
         id="path141"
         style="stroke:#000000;fill:none;stroke-linecap: round"
         d="M -356.559723,1080.101049 -356.559723,1093.970471" />
      <path
         id="path143"
         style="stroke:#000000;fill:none;stroke-linecap: round"
         d="M -356.559723,1093.970471 -368.117575,1093.970471" />
      <path
         id="path145"
         style="stroke:#000000;fill:none;stroke-linecap: round"
         d="M -368.117575,1093.970471 -368.117575,1107.839893" />
      <path
         id="path147"
         style="stroke:#000000;fill:none;stroke-linecap: round"
         d="M -368.117575,1107.839893 -356.559723,1107.839893" />
      <path
         id="path149"
         style="stroke:#000000;fill:none;stroke-linecap: round"
         d="M -356.559723,1107.839893 -356.559723,1121.709315" />
      <path
         id="path151"
         style="stroke:#000000;fill:none;stroke-linecap: round"
         d="M -231.349664,1087.035760 A 5.778926,5.778926 -0.000000 1 0 -242.907515,1087.035760 5.778926,5.778926 -0.000000 1 0 -231.349664,1087.035760 z" />
      <path
         id="path153"
         style="stroke:#000000;fill:none;stroke-linecap: round"
         d="M -100.360678,1087.035760 A 5.778926,5.778926 -0.000000 1 0 -111.918530,1087.035760 5.778926,5.778926 -0.000000 1 0 -100.360678,1087.035760 z" />
    </symbol>
    <symbol
       id="top_out_big_2">
      <path
         id="path156"
         style="stroke:#000000;fill:none;stroke-linecap: round"
         d="M -329.976664,1121.709315 5.201033,1121.709315" />
      <path
         id="path158"
         style="stroke:#000000;fill:none;stroke-linecap: round"
         d="M 5.201033,1121.709315 5.201033,1107.839893" />
      <path
         id="path160"
         style="stroke:#000000;fill:none;stroke-linecap: round"
         d="M 5.201033,1107.839893 16.758885,1107.839893" />
      <path
         id="path162"
         style="stroke:#000000;fill:none;stroke-linecap: round"
         d="M 16.758885,1107.839893 16.758885,1093.970471" />
      <path
         id="path164"
         style="stroke:#000000;fill:none;stroke-linecap: round"
         d="M 16.758885,1093.970471 5.201033,1093.970471" />
      <path
         id="path166"
         style="stroke:#000000;fill:none;stroke-linecap: round"
         d="M 5.201033,1093.970471 5.201033,1080.101049" />
      <path
         id="path168"
         style="stroke:#000000;fill:none;stroke-linecap: round"
         d="M 5.201033,1080.101049 16.758885,1080.101049" />
      <path
         id="path170"
         style="stroke:#000000;fill:none;stroke-linecap: round"
         d="M 16.758885,1080.101049 16.758885,1066.231627" />
      <path
         id="path172"
         style="stroke:#000000;fill:none;stroke-linecap: round"
         d="M 16.758885,1066.231627 5.201033,1066.231627" />
      <path
         id="path174"
         style="stroke:#000000;fill:none;stroke-linecap: round"
         d="M 5.201033,1066.231627 5.201033,1052.362205" />
      <path
         id="path176"
         style="stroke:#000000;fill:none;stroke-linecap: round"
         d="M 5.201033,1052.362205 -329.976664,1052.362205" />
      <path
         id="path178"
         style="stroke:#000000;fill:none;stroke-linecap: round"
         d="M -329.976664,1052.362205 -329.976664,1066.231627" />
      <path
         id="path180"
         style="stroke:#000000;fill:none;stroke-linecap: round"
         d="M -329.976664,1066.231627 -341.534516,1066.231627" />
      <path
         id="path182"
         style="stroke:#000000;fill:none;stroke-linecap: round"
         d="M -341.534516,1066.231627 -341.534516,1080.101049" />
      <path
         id="path184"
         style="stroke:#000000;fill:none;stroke-linecap: round"
         d="M -341.534516,1080.101049 -329.976664,1080.101049" />
      <path
         id="path186"
         style="stroke:#000000;fill:none;stroke-linecap: round"
         d="M -329.976664,1080.101049 -329.976664,1093.970471" />
      <path
         id="path188"
         style="stroke:#000000;fill:none;stroke-linecap: round"
         d="M -329.976664,1093.970471 -341.534516,1093.970471" />
      <path
         id="path190"
         style="stroke:#000000;fill:none;stroke-linecap: round"
         d="M -341.534516,1093.970471 -341.534516,1107.839893" />
      <path
         id="path192"
         style="stroke:#000000;fill:none;stroke-linecap: round"
         d="M -341.534516,1107.839893 -329.976664,1107.839893" />
      <path
         id="path194"
         style="stroke:#000000;fill:none;stroke-linecap: round"
         d="M -329.976664,1107.839893 -329.976664,1121.709315" />
      <path
         id="path196"
         style="stroke:#000000;fill:none;stroke-linecap: round"
         d="M -216.324456,1087.035760 A 5.778926,5.778926 -0.000000 1 0 -227.882308,1087.035760 5.778926,5.778926 -0.000000 1 0 -216.324456,1087.035760 z" />
      <path
         id="path198"
         style="stroke:#000000;fill:none;stroke-linecap: round"
         d="M -96.893323,1087.035760 A 5.778926,5.778926 -0.000000 1 0 -108.451174,1087.035760 5.778926,5.778926 -0.000000 1 0 -96.893323,1087.035760 z" />
    </symbol>
    <symbol
       id="top_out_small_1">
      <path
         id="path201"
         style="stroke:#000000;fill:none;stroke-linecap: round"
         d="M -350.780797,1122.865100 5.201033,1122.865100" />
      <path
         id="path203"
         style="stroke:#000000;fill:none;stroke-linecap: round"
         d="M 5.201033,1122.865100 5.201033,1108.995678" />
      <path
         id="path205"
         style="stroke:#000000;fill:none;stroke-linecap: round"
         d="M 5.201033,1108.995678 16.758885,1108.995678" />
      <path
         id="path207"
         style="stroke:#000000;fill:none;stroke-linecap: round"
         d="M 16.758885,1108.995678 16.758885,1095.126256" />
      <path
         id="path209"
         style="stroke:#000000;fill:none;stroke-linecap: round"
         d="M 16.758885,1095.126256 5.201033,1095.126256" />
      <path
         id="path211"
         style="stroke:#000000;fill:none;stroke-linecap: round"
         d="M 5.201033,1095.126256 5.201033,1081.256834" />
      <path
         id="path213"
         style="stroke:#000000;fill:none;stroke-linecap: round"
         d="M 5.201033,1081.256834 16.758885,1081.256834" />
      <path
         id="path215"
         style="stroke:#000000;fill:none;stroke-linecap: round"
         d="M 16.758885,1081.256834 16.758885,1067.387412" />
      <path
         id="path217"
         style="stroke:#000000;fill:none;stroke-linecap: round"
         d="M 16.758885,1067.387412 5.201033,1067.387412" />
      <path
         id="path219"
         style="stroke:#000000;fill:none;stroke-linecap: round"
         d="M 5.201033,1067.387412 5.201033,1053.517990" />
      <path
         id="path221"
         style="stroke:#000000;fill:none;stroke-linecap: round"
         d="M 5.201033,1053.517990 -350.780797,1053.517990" />
      <path
         id="path223"
         style="stroke:#000000;fill:none;stroke-linecap: round"
         d="M -350.780797,1053.517990 -350.780797,1067.387412" />
      <path
         id="path225"
         style="stroke:#000000;fill:none;stroke-linecap: round"
         d="M -350.780797,1067.387412 -362.338649,1067.387412" />
      <path
         id="path227"
         style="stroke:#000000;fill:none;stroke-linecap: round"
         d="M -362.338649,1067.387412 -362.338649,1081.256834" />
      <path
         id="path229"
         style="stroke:#000000;fill:none;stroke-linecap: round"
         d="M -362.338649,1081.256834 -350.780797,1081.256834" />
      <path
         id="path231"
         style="stroke:#000000;fill:none;stroke-linecap: round"
         d="M -350.780797,1081.256834 -350.780797,1095.126256" />
      <path
         id="path233"
         style="stroke:#000000;fill:none;stroke-linecap: round"
         d="M -350.780797,1095.126256 -362.338649,1095.126256" />
      <path
         id="path235"
         style="stroke:#000000;fill:none;stroke-linecap: round"
         d="M -362.338649,1095.126256 -362.338649,1108.995678" />
      <path
         id="path237"
         style="stroke:#000000;fill:none;stroke-linecap: round"
         d="M -362.338649,1108.995678 -350.780797,1108.995678" />
      <path
         id="path239"
         style="stroke:#000000;fill:none;stroke-linecap: round"
         d="M -350.780797,1108.995678 -350.780797,1122.865100" />
      <path
         id="path241"
         style="stroke:#000000;fill:none;stroke-linecap: round"
         d="M -230.193878,1088.191545 A 5.778926,5.778926 -0.000000 1 0 -241.751730,1088.191545 5.778926,5.778926 -0.000000 1 0 -230.193878,1088.191545 z" />
      <path
         id="path243"
         style="stroke:#000000;fill:none;stroke-linecap: round"
         d="M -103.828034,1088.191545 A 5.778926,5.778926 -0.000000 1 0 -115.385885,1088.191545 5.778926,5.778926 -0.000000 1 0 -103.828034,1088.191545 z" />
    </symbol>
    <symbol
       id="top_small_2">
      <path
         id="path246"
         style="stroke:#000000;fill:none;stroke-linecap: round"
         d="M -255.428521,1121.709315 5.547769,1121.709315" />
      <path
         id="path248"
         style="stroke:#000000;fill:none;stroke-linecap: round"
         d="M 5.547769,1121.709315 5.547769,1107.839893" />
      <path
         id="path250"
         style="stroke:#000000;fill:none;stroke-linecap: round"
         d="M 5.547769,1107.839893 17.105620,1107.839893" />
      <path
         id="path252"
         style="stroke:#000000;fill:none;stroke-linecap: round"
         d="M 17.105620,1107.839893 17.105620,1093.970471" />
      <path
         id="path254"
         style="stroke:#000000;fill:none;stroke-linecap: round"
         d="M 17.105620,1093.970471 5.547769,1093.970471" />
      <path
         id="path256"
         style="stroke:#000000;fill:none;stroke-linecap: round"
         d="M 5.547769,1093.970471 5.547769,1080.101049" />
      <path
         id="path258"
         style="stroke:#000000;fill:none;stroke-linecap: round"
         d="M 5.547769,1080.101049 17.105620,1080.101049" />
      <path
         id="path260"
         style="stroke:#000000;fill:none;stroke-linecap: round"
         d="M 17.105620,1080.101049 17.105620,1066.231627" />
      <path
         id="path262"
         style="stroke:#000000;fill:none;stroke-linecap: round"
         d="M 17.105620,1066.231627 5.547769,1066.231627" />
      <path
         id="path264"
         style="stroke:#000000;fill:none;stroke-linecap: round"
         d="M 5.547769,1066.231627 5.547769,1052.362205" />
      <path
         id="path266"
         style="stroke:#000000;fill:none;stroke-linecap: round"
         d="M 5.547769,1052.362205 -255.428521,1052.362205" />
      <path
         id="path268"
         style="stroke:#000000;fill:none;stroke-linecap: round"
         d="M -255.428521,1052.362205 -255.428521,1066.231627" />
      <path
         id="path270"
         style="stroke:#000000;fill:none;stroke-linecap: round"
         d="M -255.428521,1066.231627 -266.986373,1066.231627" />
      <path
         id="path272"
         style="stroke:#000000;fill:none;stroke-linecap: round"
         d="M -266.986373,1066.231627 -266.986373,1080.101049" />
      <path
         id="path274"
         style="stroke:#000000;fill:none;stroke-linecap: round"
         d="M -266.986373,1080.101049 -255.428521,1080.101049" />
      <path
         id="path276"
         style="stroke:#000000;fill:none;stroke-linecap: round"
         d="M -255.428521,1080.101049 -255.428521,1093.970471" />
      <path
         id="path278"
         style="stroke:#000000;fill:none;stroke-linecap: round"
         d="M -255.428521,1093.970471 -266.986373,1093.970471" />
      <path
         id="path280"
         style="stroke:#000000;fill:none;stroke-linecap: round"
         d="M -266.986373,1093.970471 -266.986373,1107.839893" />
      <path
         id="path282"
         style="stroke:#000000;fill:none;stroke-linecap: round"
         d="M -266.986373,1107.839893 -255.428521,1107.839893" />
      <path
         id="path284"
         style="stroke:#000000;fill:none;stroke-linecap: round"
         d="M -255.428521,1107.839893 -255.428521,1121.709315" />
      <path
         id="path286"
         style="stroke:#000000;fill:none;stroke-linecap: round"
         d="M -166.510116,1087.035760 A 5.778926,5.778926 -0.000000 1 0 -178.067968,1087.035760 5.778926,5.778926 -0.000000 1 0 -166.510116,1087.035760 z" />
      <path
         id="path288"
         style="stroke:#000000;fill:none;stroke-linecap: round"
         d="M -71.812785,1087.035760 A 5.778926,5.778926 -0.000000 1 0 -83.370636,1087.035760 5.778926,5.778926 -0.000000 1 0 -71.812785,1087.035760 z" />
    </symbol>
    <symbol
       id="side_in">
      <path
         id="path291"
         style="stroke:#000000;fill:none;stroke-linecap: round"
         d="M -63.568184,1052.362205 5.778926,1052.362205" />
      <path
         id="path293"
         style="stroke:#000000;fill:none;stroke-linecap: round"
         d="M 5.778926,1052.362205 5.778926,941.406829" />
      <path
         id="path295"
         style="stroke:#000000;fill:none;stroke-linecap: round"
         d="M 5.778926,941.406829 -8.090496,941.406829" />
      <path
         id="path297"
         style="stroke:#000000;fill:none;stroke-linecap: round"
         d="M -8.090496,941.406829 -8.090496,952.964681" />
      <path
         id="path299"
         style="stroke:#000000;fill:none;stroke-linecap: round"
         d="M -8.090496,952.964681 -21.959918,952.964681" />
      <path
         id="path301"
         style="stroke:#000000;fill:none;stroke-linecap: round"
         d="M -21.959918,952.964681 -21.959918,941.406829" />
      <path
         id="path303"
         style="stroke:#000000;fill:none;stroke-linecap: round"
         d="M -21.959918,941.406829 -35.829340,941.406829" />
      <path
         id="path305"
         style="stroke:#000000;fill:none;stroke-linecap: round"
         d="M -35.829340,941.406829 -35.829340,952.964681" />
      <path
         id="path307"
         style="stroke:#000000;fill:none;stroke-linecap: round"
         d="M -35.829340,952.964681 -49.698762,952.964681" />
      <path
         id="path309"
         style="stroke:#000000;fill:none;stroke-linecap: round"
         d="M -49.698762,952.964681 -49.698762,941.406829" />
      <path
         id="path311"
         style="stroke:#000000;fill:none;stroke-linecap: round"
         d="M -49.698762,941.406829 -63.568184,941.406829" />
      <path
         id="path313"
         style="stroke:#000000;fill:none;stroke-linecap: round"
         d="M -63.568184,941.406829 -63.568184,1052.362205" />
      <path
         id="path315"
         style="stroke:#000000;fill:none;stroke-linecap: round"
         d="M -26.583059,1006.130798 A 2.311570,2.311570 -0.000000 1 0 -31.206199,1006.130798 2.311570,2.311570 -0.000000 1 0 -26.583059,1006.130798 z" />
      <use
         id="use317"
         xlink:href="#Top_In"
         y="-156.030997"
         x="305.127283" />
    </symbol>
    <symbol
       id="Top_In_A">
      <path
         id="path320"
         style="stroke:#000000;fill:none;stroke-linecap: round"
         d="M -62.990291,1052.940097 6.356818,1052.940097" />
      <path
         id="path322"
         style="stroke:#000000;fill:none;stroke-linecap: round"
         d="M 6.356818,1052.940097 6.356818,941.984722" />
      <path
         id="path324"
         style="stroke:#000000;fill:none;stroke-linecap: round"
         d="M 6.356818,941.984722 -7.512604,941.984722" />
      <path
         id="path326"
         style="stroke:#000000;fill:none;stroke-linecap: round"
         d="M -7.512604,941.984722 -7.512604,953.542573" />
      <path
         id="path328"
         style="stroke:#000000;fill:none;stroke-linecap: round"
         d="M -7.512604,953.542573 -21.382026,953.542573" />
      <path
         id="path330"
         style="stroke:#000000;fill:none;stroke-linecap: round"
         d="M -21.382026,953.542573 -21.382026,941.984722" />
      <path
         id="path332"
         style="stroke:#000000;fill:none;stroke-linecap: round"
         d="M -21.382026,941.984722 -35.251447,941.984722" />
      <path
         id="path334"
         style="stroke:#000000;fill:none;stroke-linecap: round"
         d="M -35.251447,941.984722 -35.251447,953.542573" />
      <path
         id="path336"
         style="stroke:#000000;fill:none;stroke-linecap: round"
         d="M -35.251447,953.542573 -49.120869,953.542573" />
      <path
         id="path338"
         style="stroke:#000000;fill:none;stroke-linecap: round"
         d="M -49.120869,953.542573 -49.120869,941.984722" />
      <path
         id="path340"
         style="stroke:#000000;fill:none;stroke-linecap: round"
         d="M -49.120869,941.984722 -62.990291,941.984722" />
      <path
         id="path342"
         style="stroke:#000000;fill:none;stroke-linecap: round"
         d="M -62.990291,941.984722 -62.990291,1052.940097" />
      <path
         id="path344"
         style="stroke:#000000;fill:none;stroke-linecap: round"
         d="M -26.005166,1006.708691 A 2.311570,2.311570 -0.000000 1 0 -30.628307,1006.708691 2.311570,2.311570 -0.000000 1 0 -26.005166,1006.708691 z" />
    </symbol>
    <symbol
       id="side_out">
      <path
         id="path347"
         style="stroke:#000000;fill:none;stroke-linecap: round"
         d="M -64.146077,1051.206420 5.201033,1051.206420" />
      <path
         id="path349"
         style="stroke:#000000;fill:none;stroke-linecap: round"
         d="M 5.201033,1051.206420 5.201033,889.396497" />
      <path
         id="path351"
         style="stroke:#000000;fill:none;stroke-linecap: round"
         d="M 5.201033,889.396497 -8.668389,889.396497" />
      <path
         id="path353"
         style="stroke:#000000;fill:none;stroke-linecap: round"
         d="M -8.668389,889.396497 -8.668389,900.954348" />
      <path
         id="path355"
         style="stroke:#000000;fill:none;stroke-linecap: round"
         d="M -8.668389,900.954348 -22.537811,900.954348" />
      <path
         id="path357"
         style="stroke:#000000;fill:none;stroke-linecap: round"
         d="M -22.537811,900.954348 -22.537811,889.396497" />
      <path
         id="path359"
         style="stroke:#000000;fill:none;stroke-linecap: round"
         d="M -22.537811,889.396497 -36.407233,889.396497" />
      <path
         id="path361"
         style="stroke:#000000;fill:none;stroke-linecap: round"
         d="M -36.407233,889.396497 -36.407233,900.954348" />
      <path
         id="path363"
         style="stroke:#000000;fill:none;stroke-linecap: round"
         d="M -36.407233,900.954348 -50.276655,900.954348" />
      <path
         id="path365"
         style="stroke:#000000;fill:none;stroke-linecap: round"
         d="M -50.276655,900.954348 -50.276655,889.396497" />
      <path
         id="path367"
         style="stroke:#000000;fill:none;stroke-linecap: round"
         d="M -50.276655,889.396497 -64.146077,889.396497" />
      <path
         id="path369"
         style="stroke:#000000;fill:none;stroke-linecap: round"
         d="M -64.146077,889.396497 -64.146077,1051.206420" />
      <path
         id="path371"
         style="stroke:#000000;fill:none;stroke-linecap: round"
         d="M -53.744010,1025.779146 -5.201033,1025.779146" />
      <path
         id="path373"
         style="stroke:#000000;fill:none;stroke-linecap: round"
         d="M -5.201033,1025.779146 -5.201033,928.693192" />
      <path
         id="path375"
         style="stroke:#000000;fill:none;stroke-linecap: round"
         d="M -5.201033,928.693192 -53.744010,928.693192" />
      <path
         id="path377"
         style="stroke:#000000;fill:none;stroke-linecap: round"
         d="M -53.744010,928.693192 -53.744010,1025.779146" />
    </symbol>
    <symbol
       id="side_out_small">
      <path
         id="path380"
         style="stroke:#000000;fill:none;stroke-linecap: round"
         d="M -63.568184,1052.362205 5.778926,1052.362205" />
      <path
         id="path382"
         style="stroke:#000000;fill:none;stroke-linecap: round"
         d="M 5.778926,1052.362205 5.778926,911.356415" />
      <path
         id="path384"
         style="stroke:#000000;fill:none;stroke-linecap: round"
         d="M 5.778926,911.356415 -8.090496,911.356415" />
      <path
         id="path386"
         style="stroke:#000000;fill:none;stroke-linecap: round"
         d="M -8.090496,911.356415 -8.090496,922.914266" />
      <path
         id="path388"
         style="stroke:#000000;fill:none;stroke-linecap: round"
         d="M -8.090496,922.914266 -21.959918,922.914266" />
      <path
         id="path390"
         style="stroke:#000000;fill:none;stroke-linecap: round"
         d="M -21.959918,922.914266 -21.959918,911.356415" />
      <path
         id="path392"
         style="stroke:#000000;fill:none;stroke-linecap: round"
         d="M -21.959918,911.356415 -35.829340,911.356415" />
      <path
         id="path394"
         style="stroke:#000000;fill:none;stroke-linecap: round"
         d="M -35.829340,911.356415 -35.829340,922.914266" />
      <path
         id="path396"
         style="stroke:#000000;fill:none;stroke-linecap: round"
         d="M -35.829340,922.914266 -49.698762,922.914266" />
      <path
         id="path398"
         style="stroke:#000000;fill:none;stroke-linecap: round"
         d="M -49.698762,922.914266 -49.698762,911.356415" />
      <path
         id="path400"
         style="stroke:#000000;fill:none;stroke-linecap: round"
         d="M -49.698762,911.356415 -63.568184,911.356415" />
      <path
         id="path402"
         style="stroke:#000000;fill:none;stroke-linecap: round"
         d="M -63.568184,911.356415 -63.568184,1052.362205" />
      <path
         id="path404"
         style="stroke:#000000;fill:none;stroke-linecap: round"
         d="M -42.764051,1029.246501 -15.025207,1029.246501" />
      <path
         id="path406"
         style="stroke:#000000;fill:none;stroke-linecap: round"
         d="M -15.025207,1029.246501 -15.025207,973.768814" />
      <path
         id="path408"
         style="stroke:#000000;fill:none;stroke-linecap: round"
         d="M -15.025207,973.768814 -42.764051,973.768814" />
      <path
         id="path410"
         style="stroke:#000000;fill:none;stroke-linecap: round"
         d="M -42.764051,973.768814 -42.764051,1029.246501" />
    </symbol>
  </defs>
  <g
     id="g412">
    <use
       id="use414"
       xlink:href="#top_out_big1"
       y="-244.448562"
       x="373.896500" />
    <use
       id="use416"
       xlink:href="#top_out_big_2"
       y="-323.041953"
       x="350.202905" />
    <use
       id="use418"
       xlink:href="#top_out_small_1"
       y="-406.836378"
       x="362.338649" />
    <use
       id="use420"
       xlink:href="#top_small_2"
       y="-405.680592"
       x="650.707047" />
    <use
       id="use422"
       xlink:href="#Top_In_A"
       y="-219.021288"
       x="472.716132" />
    <use
       id="use424"
       xlink:href="#side_out"
       y="-165.855171"
       x="553.621093" />
    <use
       id="use426"
       xlink:href="#side_out_small"
       y="-183.769841"
       x="639.149195" />
    <use
       id="use428"
       xlink:href="#Top_In"
       y="-161.232030"
       x="246.182240" />
    <use
       id="use430"
       xlink:href="#Top_In_A"
       y="-83.216532"
       x="476.761380" />
    <use
       id="use432"
       xlink:href="#side_out"
       y="0.000000"
       x="379.097534" />
    <use
       id="use434"
       xlink:href="#side_out_small"
       y="-17.336777"
       x="644.350229" />
  </g>
</svg>
