<?xml version="1.0" encoding="utf-8" ?>
<svg baseProfile="full" height="110mm" version="1.1" viewBox="0 0 280 110" width="280mm" xmlns="http://www.w3.org/2000/svg" xmlns:ev="http://www.w3.org/2001/xml-events" xmlns:xlink="http://www.w3.org/1999/xlink"><defs /><line stroke="black" stroke-width="0.2" x1="60" x2="60" y1="10.0" y2="45.0" /><line stroke="black" stroke-width="0.2" x1="220" x2="220" y1="10.0" y2="45.0" /><circle cx="5.25" cy="27.5" fill-opacity="0" r="1.5" stroke="red" stroke-width="0.2" /><circle cx="274.75" cy="27.5" fill-opacity="0" r="1.5" stroke="red" stroke-width="0.2" /><circle cx="57.25" cy="27.5" fill-opacity="0" r="1.5" stroke="red" stroke-width="0.2" /><circle cx="222.75" cy="27.5" fill-opacity="0" r="1.5" stroke="red" stroke-width="0.2" /><circle cx="62.5" cy="4.5" fill-opacity="0" r="1.5" stroke="red" stroke-width="0.2" /><circle cx="104.5" cy="4.5" fill-opacity="0" r="1.5" stroke="red" stroke-width="0.2" /><circle cx="62.5" cy="50.5" fill-opacity="0" r="1.5" stroke="red" stroke-width="0.2" /><circle cx="104.5" cy="50.5" fill-opacity="0" r="1.5" stroke="red" stroke-width="0.2" /><circle cx="175.5" cy="4.5" fill-opacity="0" r="1.5" stroke="red" stroke-width="0.2" /><circle cx="217.5" cy="4.5" fill-opacity="0" r="1.5" stroke="red" stroke-width="0.2" /><circle cx="175.5" cy="50.5" fill-opacity="0" r="1.5" stroke="red" stroke-width="0.2" /><circle cx="217.5" cy="50.5" fill-opacity="0" r="1.5" stroke="red" stroke-width="0.2" /><circle cx="140.0" cy="27.5" fill-opacity="0" r="2" stroke="red" stroke-width="0.2" /><circle cx="118.0" cy="13.5" fill-opacity="0" r="1.5" stroke="red" stroke-width="0.2" /><circle cx="162.0" cy="41.5" fill-opacity="0" r="1.5" stroke="red" stroke-width="0.2" /><circle cx="118.0" cy="41.5" fill-opacity="0" r="2" stroke="red" stroke-width="0.2" /><circle cx="162.0" cy="13.5" fill-opacity="0" r="2" stroke="red" stroke-width="0.2" /><circle cx="31.25" cy="27.5" fill-opacity="0" r="17.5" stroke="blue" stroke-width="0.2" /><circle cx="248.75" cy="27.5" fill-opacity="0" r="17.5" stroke="blue" stroke-width="0.2" /><path d="M 0 27.5 A 5.25 5.25 0 0,0 5.25 32.75 C 10.5 32.75 5.25 53.5 31.25 53.5 C 57.25 53.5 48.75 45.0 57.25 45.0 C 60 45.0 60 45.0 60 50.5 C 60 53.0 60 53.0 62.5 53.0 L 104.5 53.0 C 107 53.0 107 53.0 107 50.5 C 107 45.0 107 45.0 140.0 45.0" fill="none" stroke="red" stroke-width="0.2" /><path d="M 0 27.5 A 5.25 5.25 0 0,0 5.25 32.75 C 10.5 32.75 5.25 53.5 31.25 53.5 C 57.25 53.5 48.75 45.0 57.25 45.0 C 60 45.0 60 45.0 60 50.5 C 60 53.0 60 53.0 62.5 53.0 L 104.5 53.0 C 107 53.0 107 53.0 107 50.5 C 107 45.0 107 45.0 140.0 45.0" fill="none" stroke="red" stroke-width="0.2" transform="scale(1,-1) translate(0,-55)" /><path d="M 0 27.5 A 5.25 5.25 0 0,0 5.25 32.75 C 10.5 32.75 5.25 53.5 31.25 53.5 C 57.25 53.5 48.75 45.0 57.25 45.0 C 60 45.0 60 45.0 60 50.5 C 60 53.0 60 53.0 62.5 53.0 L 104.5 53.0 C 107 53.0 107 53.0 107 50.5 C 107 45.0 107 45.0 140.0 45.0" fill="none" stroke="red" stroke-width="0.2" transform="scale(-1,1) translate(-280,0)" /><path d="M 0 27.5 A 5.25 5.25 0 0,0 5.25 32.75 C 10.5 32.75 5.25 53.5 31.25 53.5 C 57.25 53.5 48.75 45.0 57.25 45.0 C 60 45.0 60 45.0 60 50.5 C 60 53.0 60 53.0 62.5 53.0 L 104.5 53.0 C 107 53.0 107 53.0 107 50.5 C 107 45.0 107 45.0 140.0 45.0" fill="none" stroke="red" stroke-width="0.2" transform="scale(-1,-1) translate(-280,-55)" /><rect fill-opacity="0" height="30.0" stroke="red" stroke-width="0.2" width="265" x="0" y="55" /><line stroke="black" stroke-width="0.2" x1="45" x2="45" y1="55" y2="85.0" /><line stroke="black" stroke-width="0.2" x1="220" x2="220" y1="55" y2="85.0" /><circle cx="23" cy="70.0" fill-opacity="0" r="2" stroke="red" stroke-width="0.2" /><circle cx="242" cy="70.0" fill-opacity="0" r="2" stroke="red" stroke-width="0.2" /><circle cx="15.5" cy="70.0" fill-opacity="0" r="1.5" stroke="red" stroke-width="0.2" /><circle cx="30.5" cy="70.0" fill-opacity="0" r="1.5" stroke="red" stroke-width="0.2" /><circle cx="234.5" cy="70.0" fill-opacity="0" r="1.5" stroke="red" stroke-width="0.2" /><circle cx="249.5" cy="70.0" fill-opacity="0" r="1.5" stroke="red" stroke-width="0.2" /></svg>