<?xml version="1.0" encoding="UTF-8" standalone="no"?>
<svg
   xmlns:dc="http://purl.org/dc/elements/1.1/"
   xmlns:cc="http://creativecommons.org/ns#"
   xmlns:rdf="http://www.w3.org/1999/02/22-rdf-syntax-ns#"
   xmlns:svg="http://www.w3.org/2000/svg"
   xmlns="http://www.w3.org/2000/svg"
   xmlns:sodipodi="http://sodipodi.sourceforge.net/DTD/sodipodi-0.dtd"
   xmlns:inkscape="http://www.inkscape.org/namespaces/inkscape"
   height="110mm"
   version="1.1"
   viewBox="0 0 280 110"
   width="280mm"
   id="svg2"
   inkscape:version="0.91 r13725"
   sodipodi:docname="br_plain_ik.svg">
  <metadata
     id="metadata76">
    <rdf:RDF>
      <cc:Work
         rdf:about="">
        <dc:format>image/svg+xml</dc:format>
        <dc:type
           rdf:resource="http://purl.org/dc/dcmitype/StillImage" />
        <dc:title></dc:title>
      </cc:Work>
    </rdf:RDF>
  </metadata>
  <sodipodi:namedview
     pagecolor="#ffffff"
     bordercolor="#666666"
     borderopacity="1"
     objecttolerance="10"
     gridtolerance="10"
     guidetolerance="10"
     inkscape:pageopacity="0"
     inkscape:pageshadow="2"
     inkscape:window-width="1855"
     inkscape:window-height="1056"
     id="namedview74"
     showgrid="false"
     inkscape:zoom="1.160883"
     inkscape:cx="272.95696"
     inkscape:cy="194.88189"
     inkscape:window-x="65"
     inkscape:window-y="24"
     inkscape:window-maximized="1"
     inkscape:current-layer="svg2" />
  <defs
     id="defs4" />
  <line
     stroke="black"
     stroke-width="0.2"
     x1="60"
     x2="60"
     y1="10.0"
     y2="45.0"
     id="line6" />
  <line
     stroke="black"
     stroke-width="0.2"
     x1="220"
     x2="220"
     y1="10.0"
     y2="45.0"
     id="line8" />
  <circle
     cx="5.25"
     cy="27.5"
     fill-opacity="0"
     r="1.5"
     stroke="red"
     stroke-width="0.2"
     id="circle10" />
  <circle
     cx="274.75"
     cy="27.5"
     fill-opacity="0"
     r="1.5"
     stroke="red"
     stroke-width="0.2"
     id="circle12" />
  <circle
     cx="57.25"
     cy="27.5"
     fill-opacity="0"
     r="1.5"
     stroke="red"
     stroke-width="0.2"
     id="circle14" />
  <circle
     cx="222.75"
     cy="27.5"
     fill-opacity="0"
     r="1.5"
     stroke="red"
     stroke-width="0.2"
     id="circle16" />
  <circle
     cx="62.5"
     cy="4.5"
     fill-opacity="0"
     r="1.5"
     stroke="red"
     stroke-width="0.2"
     id="circle18" />
  <circle
     cx="104.5"
     cy="4.5"
     fill-opacity="0"
     r="1.5"
     stroke="red"
     stroke-width="0.2"
     id="circle20" />
  <circle
     cx="62.5"
     cy="50.5"
     fill-opacity="0"
     r="1.5"
     stroke="red"
     stroke-width="0.2"
     id="circle22" />
  <circle
     cx="104.5"
     cy="50.5"
     fill-opacity="0"
     r="1.5"
     stroke="red"
     stroke-width="0.2"
     id="circle24" />
  <circle
     cx="175.5"
     cy="4.5"
     fill-opacity="0"
     r="1.5"
     stroke="red"
     stroke-width="0.2"
     id="circle26" />
  <circle
     cx="217.5"
     cy="4.5"
     fill-opacity="0"
     r="1.5"
     stroke="red"
     stroke-width="0.2"
     id="circle28" />
  <circle
     cx="175.5"
     cy="50.5"
     fill-opacity="0"
     r="1.5"
     stroke="red"
     stroke-width="0.2"
     id="circle30" />
  <circle
     cx="217.5"
     cy="50.5"
     fill-opacity="0"
     r="1.5"
     stroke="red"
     stroke-width="0.2"
     id="circle32" />
  <circle
     cx="140.0"
     cy="27.5"
     fill-opacity="0"
     r="2"
     stroke="red"
     stroke-width="0.2"
     id="circle34" />
  <circle
     cx="118.0"
     cy="13.5"
     fill-opacity="0"
     r="1.5"
     stroke="red"
     stroke-width="0.2"
     id="circle36" />
  <circle
     cx="162.0"
     cy="41.5"
     fill-opacity="0"
     r="1.5"
     stroke="red"
     stroke-width="0.2"
     id="circle38" />
  <circle
     cx="118.0"
     cy="41.5"
     fill-opacity="0"
     r="2"
     stroke="red"
     stroke-width="0.2"
     id="circle40" />
  <circle
     cx="162.0"
     cy="13.5"
     fill-opacity="0"
     r="2"
     stroke="red"
     stroke-width="0.2"
     id="circle42" />
  <circle
     cx="31.25"
     cy="27.5"
     fill-opacity="0"
     r="17.5"
     stroke="blue"
     stroke-width="0.2"
     id="circle44" />
  <circle
     cx="248.75"
     cy="27.5"
     fill-opacity="0"
     r="17.5"
     stroke="blue"
     stroke-width="0.2"
     id="circle46" />
  <path
     d="M 0 27.5 A 5.25 5.25 0 0,0 5.25 32.75 C 10.5 32.75 5.25 53.5 31.25 53.5 C 57.25 53.5 48.75 45.0 57.25 45.0 C 60 45.0 60 45.0 60 50.5 C 60 53.0 60 53.0 62.5 53.0 L 104.5 53.0 C 107 53.0 107 53.0 107 50.5 C 107 45.0 107 45.0 140.0 45.0"
     fill="none"
     stroke="red"
     stroke-width="0.2"
     id="path48" />
  <path
     d="M 0 27.5 A 5.25 5.25 0 0,0 5.25 32.75 C 10.5 32.75 5.25 53.5 31.25 53.5 C 57.25 53.5 48.75 45.0 57.25 45.0 C 60 45.0 60 45.0 60 50.5 C 60 53.0 60 53.0 62.5 53.0 L 104.5 53.0 C 107 53.0 107 53.0 107 50.5 C 107 45.0 107 45.0 140.0 45.0"
     fill="none"
     stroke="red"
     stroke-width="0.2"
     transform="scale(1,-1) translate(0,-55)"
     id="path50" />
  <path
     d="M 0 27.5 A 5.25 5.25 0 0,0 5.25 32.75 C 10.5 32.75 5.25 53.5 31.25 53.5 C 57.25 53.5 48.75 45.0 57.25 45.0 C 60 45.0 60 45.0 60 50.5 C 60 53.0 60 53.0 62.5 53.0 L 104.5 53.0 C 107 53.0 107 53.0 107 50.5 C 107 45.0 107 45.0 140.0 45.0"
     fill="none"
     stroke="red"
     stroke-width="0.2"
     transform="scale(-1,1) translate(-280,0)"
     id="path52" />
  <path
     d="M 0 27.5 A 5.25 5.25 0 0,0 5.25 32.75 C 10.5 32.75 5.25 53.5 31.25 53.5 C 57.25 53.5 48.75 45.0 57.25 45.0 C 60 45.0 60 45.0 60 50.5 C 60 53.0 60 53.0 62.5 53.0 L 104.5 53.0 C 107 53.0 107 53.0 107 50.5 C 107 45.0 107 45.0 140.0 45.0"
     fill="none"
     stroke="red"
     stroke-width="0.2"
     transform="scale(-1,-1) translate(-280,-55)"
     id="path54" />
  <rect
     fill-opacity="0"
     height="30.0"
     stroke="red"
     stroke-width="0.2"
     width="265"
     x="0"
     y="55"
     id="rect56" />
  <line
     stroke="black"
     stroke-width="0.2"
     x1="45"
     x2="45"
     y1="55"
     y2="85.0"
     id="line58" />
  <line
     stroke="black"
     stroke-width="0.2"
     x1="220"
     x2="220"
     y1="55"
     y2="85.0"
     id="line60" />
  <circle
     cx="23"
     cy="70.0"
     fill-opacity="0"
     r="2"
     stroke="red"
     stroke-width="0.2"
     id="circle62" />
  <circle
     cx="242"
     cy="70.0"
     fill-opacity="0"
     r="2"
     stroke="red"
     stroke-width="0.2"
     id="circle64" />
  <circle
     cx="15.5"
     cy="70.0"
     fill-opacity="0"
     r="1.5"
     stroke="red"
     stroke-width="0.2"
     id="circle66" />
  <circle
     cx="30.5"
     cy="70.0"
     fill-opacity="0"
     r="1.5"
     stroke="red"
     stroke-width="0.2"
     id="circle68" />
  <circle
     cx="234.5"
     cy="70.0"
     fill-opacity="0"
     r="1.5"
     stroke="red"
     stroke-width="0.2"
     id="circle70" />
  <circle
     cx="249.5"
     cy="70.0"
     fill-opacity="0"
     r="1.5"
     stroke="red"
     stroke-width="0.2"
     id="circle72" />
</svg>
