<?xml version="1.0" encoding="utf-8" ?>
<svg baseProfile="full" height="110mm" version="1.1" viewBox="0 0 280 110" width="280mm" xmlns="http://www.w3.org/2000/svg" xmlns:ev="http://www.w3.org/2001/xml-events" xmlns:xlink="http://www.w3.org/1999/xlink"><defs /><line stroke="black" stroke-width="1" x1="60" x2="60" y1="9.7" y2="45.3" /><line stroke="black" stroke-width="1" x1="220" x2="220" y1="9.7" y2="45.3" /><circle cx="10.34" cy="27.5" fill-opacity="0" r="1.5" stroke="red" stroke-width="0.2" /><circle cx="269.66" cy="27.5" fill-opacity="0" r="1.5" stroke="red" stroke-width="0.2" /><circle cx="52.34" cy="27.5" fill-opacity="0" r="1.5" stroke="red" stroke-width="0.2" /><circle cx="227.66" cy="27.5" fill-opacity="0" r="1.5" stroke="red" stroke-width="0.2" /><circle cx="31.34" cy="9.7" fill-opacity="0" r="2" stroke="red" stroke-width="0.2" /><circle cx="248.66" cy="9.7" fill-opacity="0" r="2" stroke="red" stroke-width="0.2" /><circle cx="62.5" cy="4.5" fill-opacity="0" r="1.5" stroke="red" stroke-width="0.2" /><circle cx="104.5" cy="4.5" fill-opacity="0" r="1.5" stroke="red" stroke-width="0.2" /><circle cx="81.0" cy="4.5" fill-opacity="0" r="1.5" stroke="red" stroke-width="0.2" /><circle cx="86.0" cy="4.5" fill-opacity="0" r="1.5" stroke="red" stroke-width="0.2" /><circle cx="62.5" cy="50.5" fill-opacity="0" r="1.5" stroke="red" stroke-width="0.2" /><circle cx="104.5" cy="50.5" fill-opacity="0" r="1.5" stroke="red" stroke-width="0.2" /><circle cx="81.0" cy="50.5" fill-opacity="0" r="1.5" stroke="red" stroke-width="0.2" /><circle cx="86.0" cy="50.5" fill-opacity="0" r="1.5" stroke="red" stroke-width="0.2" /><circle cx="175.5" cy="4.5" fill-opacity="0" r="1.5" stroke="red" stroke-width="0.2" /><circle cx="217.5" cy="4.5" fill-opacity="0" r="1.5" stroke="red" stroke-width="0.2" /><circle cx="194.0" cy="4.5" fill-opacity="0" r="1.5" stroke="red" stroke-width="0.2" /><circle cx="199.0" cy="4.5" fill-opacity="0" r="1.5" stroke="red" stroke-width="0.2" /><circle cx="175.5" cy="50.5" fill-opacity="0" r="1.5" stroke="red" stroke-width="0.2" /><circle cx="217.5" cy="50.5" fill-opacity="0" r="1.5" stroke="red" stroke-width="0.2" /><circle cx="194.0" cy="50.5" fill-opacity="0" r="1.5" stroke="red" stroke-width="0.2" /><circle cx="199.0" cy="50.5" fill-opacity="0" r="1.5" stroke="red" stroke-width="0.2" /><circle cx="140.0" cy="27.5" fill-opacity="0" r="5" stroke="red" stroke-width="0.2" /><circle cx="124.0" cy="13.5" fill-opacity="0" r="1.5" stroke="red" stroke-width="0.2" /><circle cx="156.0" cy="41.5" fill-opacity="0" r="1.5" stroke="red" stroke-width="0.2" /><circle cx="121.5" cy="41.5" fill-opacity="0" r="2" stroke="red" stroke-width="0.2" /><circle cx="158.5" cy="13.5" fill-opacity="0" r="2" stroke="red" stroke-width="0.2" /><circle cx="31.34" cy="27.5" fill-opacity="0" r="17.8" stroke="blue" stroke-width="0.2" /><circle cx="248.66" cy="27.5" fill-opacity="0" r="17.8" stroke="blue" stroke-width="0.2" /><path d="M 0 27.5 A 5.34 5.34 0 0,0 5.34 32.84 C 10.68 32.84 5.34 53.5 31.34 53.5 C 57.34 53.5 49.14 45.3 57.34 45.3 C 60 45.3 60 45.3 60 50.5 C 60 53.0 60 53.0 62.5 53.0 L 104.5 53.0 C 107 53.0 107 53.0 107 50.5 C 107 45.3 107 45.3 140.0 45.3" fill="none" stroke="red" stroke-width="0.2" /><path d="M 0 27.5 A 5.34 5.34 0 0,0 5.34 32.84 C 10.68 32.84 5.34 53.5 31.34 53.5 C 57.34 53.5 49.14 45.3 57.34 45.3 C 60 45.3 60 45.3 60 50.5 C 60 53.0 60 53.0 62.5 53.0 L 104.5 53.0 C 107 53.0 107 53.0 107 50.5 C 107 45.3 107 45.3 140.0 45.3" fill="none" stroke="red" stroke-width="0.2" transform="scale(1,-1) translate(0,-55)" /><path d="M 0 27.5 A 5.34 5.34 0 0,0 5.34 32.84 C 10.68 32.84 5.34 53.5 31.34 53.5 C 57.34 53.5 49.14 45.3 57.34 45.3 C 60 45.3 60 45.3 60 50.5 C 60 53.0 60 53.0 62.5 53.0 L 104.5 53.0 C 107 53.0 107 53.0 107 50.5 C 107 45.3 107 45.3 140.0 45.3" fill="none" stroke="red" stroke-width="0.2" transform="scale(-1,1) translate(-280,0)" /><path d="M 0 27.5 A 5.34 5.34 0 0,0 5.34 32.84 C 10.68 32.84 5.34 53.5 31.34 53.5 C 57.34 53.5 49.14 45.3 57.34 45.3 C 60 45.3 60 45.3 60 50.5 C 60 53.0 60 53.0 62.5 53.0 L 104.5 53.0 C 107 53.0 107 53.0 107 50.5 C 107 45.3 107 45.3 140.0 45.3" fill="none" stroke="red" stroke-width="0.2" transform="scale(-1,-1) translate(-280,-55)" /><rect fill-opacity="0" height="30.0" stroke="red" stroke-width="0.2" width="210" x="0" y="55" /><line stroke="black" stroke-width="1" x1="45" x2="45" y1="55" y2="85.0" /><line stroke="black" stroke-width="1" x1="165" x2="165" y1="55" y2="85.0" /><circle cx="23" cy="70.0" fill-opacity="0" r="2" stroke="red" stroke-width="0.2" /><circle cx="187" cy="70.0" fill-opacity="0" r="2" stroke="red" stroke-width="0.2" /><circle cx="15.5" cy="70.0" fill-opacity="0" r="1.5" stroke="red" stroke-width="0.2" /><circle cx="30.5" cy="70.0" fill-opacity="0" r="1.5" stroke="red" stroke-width="0.2" /><circle cx="179.5" cy="70.0" fill-opacity="0" r="1.5" stroke="red" stroke-width="0.2" /><circle cx="194.5" cy="70.0" fill-opacity="0" r="1.5" stroke="red" stroke-width="0.2" /><circle cx="105.0" cy="70.0" fill-opacity="0" r="5" stroke="red" stroke-width="0.2" /></svg>