<?xml version="1.0" encoding="utf-8" ?>
<svg baseProfile="full" height="110mm" version="1.1" viewBox="0 0 300 110" width="300mm" xmlns="http://www.w3.org/2000/svg" xmlns:ev="http://www.w3.org/2001/xml-events" xmlns:xlink="http://www.w3.org/1999/xlink"><defs /><line stroke="black" stroke-width="0.02" x1="70" x2="70" y1="9.7" y2="45.3" /><line stroke="black" stroke-width="0.02" x1="230" x2="230" y1="9.7" y2="45.3" /><circle cx="10.34" cy="27.5" fill-opacity="0" r="1.5" stroke="red" stroke-width="0.02" /><circle cx="289.66" cy="27.5" fill-opacity="0" r="1.5" stroke="red" stroke-width="0.02" /><circle cx="52.34" cy="27.5" fill-opacity="0" r="1.5" stroke="red" stroke-width="0.02" /><circle cx="247.66" cy="27.5" fill-opacity="0" r="1.5" stroke="red" stroke-width="0.02" /><circle cx="31.34" cy="9.7" fill-opacity="0" r="2" stroke="red" stroke-width="0.02" /><circle cx="268.66" cy="9.7" fill-opacity="0" r="2" stroke="red" stroke-width="0.02" /><circle cx="72.5" cy="4.5" fill-opacity="0" r="1.5" stroke="red" stroke-width="0.02" /><circle cx="114.5" cy="4.5" fill-opacity="0" r="1.5" stroke="red" stroke-width="0.02" /><circle cx="91.0" cy="4.5" fill-opacity="0" r="1.5" stroke="red" stroke-width="0.02" /><circle cx="96.0" cy="4.5" fill-opacity="0" r="1.5" stroke="red" stroke-width="0.02" /><circle cx="72.5" cy="50.5" fill-opacity="0" r="1.5" stroke="red" stroke-width="0.02" /><circle cx="114.5" cy="50.5" fill-opacity="0" r="1.5" stroke="red" stroke-width="0.02" /><circle cx="91.0" cy="50.5" fill-opacity="0" r="1.5" stroke="red" stroke-width="0.02" /><circle cx="96.0" cy="50.5" fill-opacity="0" r="1.5" stroke="red" stroke-width="0.02" /><circle cx="185.5" cy="4.5" fill-opacity="0" r="1.5" stroke="red" stroke-width="0.02" /><circle cx="227.5" cy="4.5" fill-opacity="0" r="1.5" stroke="red" stroke-width="0.02" /><circle cx="204.0" cy="4.5" fill-opacity="0" r="1.5" stroke="red" stroke-width="0.02" /><circle cx="209.0" cy="4.5" fill-opacity="0" r="1.5" stroke="red" stroke-width="0.02" /><circle cx="185.5" cy="50.5" fill-opacity="0" r="1.5" stroke="red" stroke-width="0.02" /><circle cx="227.5" cy="50.5" fill-opacity="0" r="1.5" stroke="red" stroke-width="0.02" /><circle cx="204.0" cy="50.5" fill-opacity="0" r="1.5" stroke="red" stroke-width="0.02" /><circle cx="209.0" cy="50.5" fill-opacity="0" r="1.5" stroke="red" stroke-width="0.02" /><circle cx="150.0" cy="27.5" fill-opacity="0" r="17.8" stroke="red" stroke-width="0.02" /><circle cx="134.0" cy="13.5" fill-opacity="0" r="1.5" stroke="red" stroke-width="0.02" /><circle cx="166.0" cy="41.5" fill-opacity="0" r="1.5" stroke="red" stroke-width="0.02" /><circle cx="131.5" cy="41.5" fill-opacity="0" r="2" stroke="red" stroke-width="0.02" /><circle cx="168.5" cy="13.5" fill-opacity="0" r="2" stroke="red" stroke-width="0.02" /><circle cx="31.34" cy="27.5" fill-opacity="0" r="17.8" stroke="red" stroke-width="0.02" /><circle cx="268.66" cy="27.5" fill-opacity="0" r="17.8" stroke="red" stroke-width="0.02" /><path d="M 0 27.5 A 5.34 5.34 0 0,0 5.34 32.84 C 10.68 32.84 5.34 53.5 31.34 53.5 C 57.34 53.5 49.14 45.3 57.34 45.3 C 70 45.3 70 45.3 70 50.5 C 70 53.0 70 53.0 72.5 53.0 L 114.5 53.0 C 117 53.0 117 53.0 117 50.5 C 117 45.3 117 53.5 150.0 53.5" fill="none" stroke="blue" stroke-width="0.02" /><image height="8mm" width="8mm" x="81.75" xlink:href="salade.png" y="9.7" /><image height="8mm" width="8mm" x="194.75" xlink:href="salade.png" y="9.7" /><path d="M 0 27.5 A 5.34 5.34 0 0,0 5.34 32.84 C 10.68 32.84 5.34 53.5 31.34 53.5 C 57.34 53.5 49.14 45.3 57.34 45.3 C 70 45.3 70 45.3 70 50.5 C 70 53.0 70 53.0 72.5 53.0 L 114.5 53.0 C 117 53.0 117 53.0 117 50.5 C 117 45.3 117 53.5 150.0 53.5" fill="none" stroke="blue" stroke-width="0.02" transform="scale(1,-1) translate(0,-55)" /><path d="M 0 27.5 A 5.34 5.34 0 0,0 5.34 32.84 C 10.68 32.84 5.34 53.5 31.34 53.5 C 57.34 53.5 49.14 45.3 57.34 45.3 C 70 45.3 70 45.3 70 50.5 C 70 53.0 70 53.0 72.5 53.0 L 114.5 53.0 C 117 53.0 117 53.0 117 50.5 C 117 45.3 117 53.5 150.0 53.5" fill="none" stroke="blue" stroke-width="0.02" transform="scale(-1,1) translate(-300,0)" /><path d="M 0 27.5 A 5.34 5.34 0 0,0 5.34 32.84 C 10.68 32.84 5.34 53.5 31.34 53.5 C 57.34 53.5 49.14 45.3 57.34 45.3 C 70 45.3 70 45.3 70 50.5 C 70 53.0 70 53.0 72.5 53.0 L 114.5 53.0 C 117 53.0 117 53.0 117 50.5 C 117 45.3 117 53.5 150.0 53.5" fill="none" stroke="blue" stroke-width="0.02" transform="scale(-1,-1) translate(-300,-55)" /><rect fill-opacity="0" height="30.0" rx="10" ry="10" stroke="blue" stroke-width="0.02" width="210" x="0" y="55" /><line stroke="black" stroke-width="0.02" x1="45" x2="45" y1="55" y2="85.0" /><line stroke="black" stroke-width="0.02" x1="165" x2="165" y1="55" y2="85.0" /><circle cx="23" cy="70.0" fill-opacity="0" r="2" stroke="red" stroke-width="0.02" /><circle cx="187" cy="70.0" fill-opacity="0" r="2" stroke="red" stroke-width="0.02" /><circle cx="15.5" cy="70.0" fill-opacity="0" r="1.5" stroke="red" stroke-width="0.02" /><circle cx="30.5" cy="70.0" fill-opacity="0" r="1.5" stroke="red" stroke-width="0.02" /><circle cx="179.5" cy="70.0" fill-opacity="0" r="1.5" stroke="red" stroke-width="0.02" /><circle cx="194.5" cy="70.0" fill-opacity="0" r="1.5" stroke="red" stroke-width="0.02" /><circle cx="105.0" cy="70.0" fill-opacity="0" r="5" stroke="red" stroke-width="0.02" /></svg>